<svg width="19" height="15" viewBox="0 0 19 15" fill="none" xmlns="http://www.w3.org/2000/svg">
<path opacity="0.3" d="M18.066 2.29388C17.391 2.57952 16.6751 2.76705 15.9421 2.85023C16.7045 2.41236 17.291 1.72039 17.567 0.894652C16.8411 1.30634 16.0469 1.59638 15.2188 1.75226C14.5198 1.03887 13.5424 0.634783 12.5198 0.63648C10.4784 0.63648 8.82158 2.21849 8.82158 4.17C8.82158 4.4473 8.85424 4.71756 8.91818 4.97562C5.84436 4.82802 3.12012 3.42175 1.29584 1.28339C0.977306 1.80468 0.795614 2.41236 0.795614 3.06016C0.795614 4.28562 1.44821 5.36744 2.44027 6.00128C1.85291 5.98407 1.27843 5.83248 0.765025 5.55923V5.60429C0.765025 7.31599 2.03986 8.74434 3.73075 9.06967C3.18617 9.2106 2.61519 9.23127 2.06102 9.13012C2.53181 10.5343 3.89795 11.5558 5.51547 11.5854C4.25007 12.5317 2.65577 13.0978 0.922798 13.0978C0.628122 13.0974 0.333709 13.0809 0.0410156 13.0483C1.6774 14.0507 3.62162 14.6365 5.70981 14.6365C12.5118 14.6365 16.2307 9.25058 16.2307 4.57995C16.2307 4.42718 16.2307 4.27441 16.2192 4.12274C16.9429 3.62235 17.5678 3.00311 18.0649 2.29388H18.066Z" fill="white"/>
</svg>
